<svg width="1454" height="1414" viewBox="0 0 1454 1414" fill="none" xmlns="http://www.w3.org/2000/svg">
<path d="M1026.2 1389.2H535L556.2 1319.6L577 1252.4H984.2L991.8 1277.2L1026.2 1389.2Z" fill="#F5EFEB"/>
<path d="M1026.2 1392H535C534.2 1392 533.4 1391.6 532.6 1390.8C532.2 1390 531.8 1389.2 532.2 1388.4L574.2 1251.2C574.6 1250 575.8 1249.2 577 1249.2H984.2C985.4 1249.2 986.6 1250 987 1251.2L1029 1388.4C1029.4 1389.2 1029 1390 1028.6 1390.8C1027.8 1391.6 1027 1392 1026.2 1392ZM538.6 1386.4H1022.6L982.2 1254.8H579L538.6 1386.4Z" fill="#919191"/>
<path d="M991.8 1277.2L556.2 1319.6L577 1252.4H984.2L991.8 1277.2Z" fill="#919191"/>
<path d="M556.2 1322C555 1322 553.8 1320.8 553.8 1319.6C553.8 1319.2 553.8 1319.2 553.8 1318.8L574.6 1251.6C575 1250.4 575.8 1250 577 1250H984.2C985.4 1250 986.2 1250.8 986.6 1251.6L994.2 1276.4C994.6 1277.2 994.2 1278 993.8 1278.4C993.4 1279.2 992.6 1279.2 991.8 1279.6L556.2 1322ZM579 1254.8L559.8 1316.8L988.6 1274.8L982.6 1254.8H579Z" fill="#919191"/>
<path d="M459.8 1382.8H1101C1108.6 1382.8 1115 1389.2 1115 1396.8V1410.4H445.8V1396.8C445.8 1389.2 452.2 1382.8 459.8 1382.8Z" fill="#F5EFEB"/>
<path d="M1115.4 1413.2H445.8C444.2 1413.2 443 1412 443 1410.4V1402.4C443 1390 453 1380 465.4 1380H1095.4C1107.8 1380 1117.8 1390 1117.8 1402.4V1410.4C1118.2 1412 1117 1413.2 1115.4 1413.2ZM448.6 1407.6H1112.6V1402.4C1112.6 1393.2 1105 1385.6 1095.8 1385.6H465.4C456.2 1385.6 448.6 1393.2 448.6 1402.4V1407.6Z" fill="#919191"/>
<path d="M134.6 353.2H1426.6C1440.2 353.2 1451.4 364.4 1451.4 378V1232.4C1451.4 1246 1440.2 1257.2 1426.6 1257.2H134.6C121 1257.2 109.8 1246 109.8 1232.4V378C109.8 364.4 121 353.2 134.6 353.2Z" fill="#F5EFEB"/>
<path d="M1416.6 1260H144.6C123.8 1260 107 1243.6 107 1222.8V388C107 367.2 123.8 350.8 144.2 350.4H1416.2C1437 350.4 1453.4 367.2 1453.4 388V1222.8C1453.8 1243.2 1437 1260 1416.6 1260ZM144.6 356C127 356 113 370.4 113 388V1222.8C113 1240.4 127.4 1254.4 144.6 1254.4H1416.6C1434.2 1254.4 1448.2 1240 1448.2 1222.8V388C1448.2 370.4 1434.2 356 1416.6 356H144.6Z" fill="#919191"/>
<path d="M1400.2 408.8H160.6V1201.6H1400.2V408.8Z" fill="#F5EFEB"/>
<path d="M1400.2 1204.4H160.6C159 1204.4 157.8 1203.2 157.8 1201.6V408.8C157.8 407.2 159 406 160.6 406H1400.2C1401.8 406 1403 407.2 1403 408.8V1201.6C1403 1203.2 1401.8 1204.4 1400.2 1204.4ZM163.4 1198.8H1397.4V411.6H163.8L163.4 1198.8Z" fill="#919191"/>
<path d="M510.2 488.4C510.2 488.4 352.2 574.4 337.8 810.8L537 850.4L589.8 666L510.2 488.4Z" fill="#2F4156"/>
<path d="M554.2 355.6C519.8 317.6 486.6 276 476.6 226C474.2 214.4 473.4 202 478.6 191.6C483.8 181.2 497 173.6 507.8 178.4C503 165.2 511 150.8 520.2 140C543 114 574.6 97.6002 608.6 93.2002C603.4 90.0002 599 85.2002 596.2 79.6002C593.8 74.0002 595 66.0002 600.6 63.2002C603.4 62.0002 606.6 62.0002 609.4 62.4002C620.6 63.6002 631 68.4002 639.8 75.6002C632.6 72.4002 632.2 60.8002 638.2 55.6002C644.2 50.4002 653.8 50.8002 660.6 54.4002C667.4 58.4002 673.4 64.0002 677.8 70.8002C675.4 65.6002 677.8 59.2002 683.4 57.2002C684.6 56.8002 686.2 56.4002 687.4 56.4002C690.2 56.8002 693 58.0002 695.4 59.6002C727.8 78.8002 747.8 115.6 750.6 153.2C753.4 190.8 740.2 228.8 718.2 259.2C696.2 289.6 665.4 313.2 632.2 331.2C605.4 345.6 572.2 356.4 545.8 341.2" fill="#F5EFEB"/>
<path d="M554.2 358.4C553.4 358.4 552.6 358 552.2 357.6C517.4 319.2 483.8 276.8 474.2 226.4C472.2 216.8 470.6 202.4 476.6 190C481.4 180 493 172.4 504.2 174C501.8 159.6 511.8 145.2 518.6 137.6C540.2 112.8 569.8 96.3999 602.2 90.7999C598.6 87.9999 595.8 84.3999 593.8 80.3999C591 73.5999 592.6 63.9999 599.8 60.3999C603 59.1999 606.6 58.7999 610.2 59.1999C617.8 59.9999 625 62.3999 631.4 65.9999C631 61.1999 633 56.3999 636.6 53.1999C643.8 46.7999 654.6 47.5999 662.2 51.5999C667 54.3999 671.4 57.9999 675 62.3999C675.4 61.1999 675.8 59.9999 676.6 59.1999C679 55.1999 683.4 52.7999 687.8 53.1999C691 53.5999 694.2 54.7999 697 56.7999C729 75.9999 750.6 112.8 753.4 152.8C756.2 189.2 744.6 227.6 720.2 260.4C699.8 288.8 670.6 313.2 633.4 333.2C600.2 351.2 571.4 355.6 549.8 346L556.6 353.6C557.8 354.8 557.4 356.4 556.6 357.6C555.4 358.4 554.6 358.4 554.2 358.4ZM545.4 338.4C545.8 338.4 546.2 338.4 547 338.8C573 354 607 341.6 630.6 328.8C667 309.2 695.4 285.2 715.4 257.6C738.6 225.6 749.8 188.8 747.4 153.6C744.6 115.2 723.8 79.9999 693.4 61.9999C691.4 60.7999 689 59.5999 686.6 59.1999C682.2 59.5999 679 63.1999 679.4 67.1999C679.4 67.9999 679.8 68.7999 679.8 69.5999C680.6 70.7999 679.8 72.7999 678.6 73.1999C677.4 73.9999 675.8 73.5999 675 72.3999C670.6 65.9999 665 60.7999 658.6 56.7999C653 53.9999 644.6 52.7999 639.4 57.5999C637 59.9999 635.8 63.5999 636.2 67.1999C636.2 68.3999 637 69.5999 637.4 70.7999C638.6 71.5999 639.8 72.3999 641 73.5999C642.2 74.3999 642.2 75.9999 641.4 77.1999C640.6 78.3999 639 78.7999 637.8 78.3999C636.2 77.5999 634.6 76.3999 633.4 75.1999C625.8 69.9999 617.4 66.7999 608.6 65.5999C606.2 65.1999 603.8 65.1999 601.4 65.9999C597.4 67.9999 596.2 74.3999 598.2 78.7999C601 83.9999 605 87.9999 609.8 91.1999C610.6 91.9999 611 93.1999 610.6 93.9999C610.2 95.1999 609.4 95.9999 608.2 95.9999C574.6 99.9999 543.8 116.4 521.4 141.6C515 149.2 504.6 163.6 509.4 177.2C509.8 178.8 509 180.4 507.8 180.8C507 181.2 506.6 181.2 505.8 180.8C496.2 176.8 484.6 184 480.2 192.8C476.2 200.8 475.4 211.6 478.2 225.6C486.6 268 512.6 305.6 541.8 339.2C543.8 338.8 544.2 338.4 545.4 338.4Z" fill="#919191"/>
<path d="M1097 1201.6H575.8C571 1154.4 567 1122.8 567 1122.8L1065 1025.2C1068.6 1049.2 1080.6 1114 1097 1201.6Z" fill="#919191"/>
<path d="M1097 1204H575.8C574.6 1204 573.4 1203.2 573.4 1202C568.6 1155.6 564.6 1123.6 564.6 1123.2C564.6 1122 565.4 1120.8 566.6 1120.4L1064.6 1022.8C1065.4 1022.8 1065.8 1022.8 1066.6 1023.2C1067 1023.6 1067.4 1024 1067.4 1024.8C1070.6 1047.6 1081.8 1108.8 1099 1200.8C1099 1201.6 1099 1202.4 1098.6 1202.8C1098.2 1203.6 1097.4 1204 1097 1204ZM578.2 1199.2H1093.8C1077.4 1111.6 1067 1052.8 1063 1028.4L569.8 1124.8C571 1132.8 573.8 1160.8 578.2 1199.2Z" fill="#919191"/>
<path d="M837.8 275.6C837.8 275.6 851.4 309.2 894.6 343.6L930.6 304.8L858.6 212.8L837.8 275.6Z" fill="#F5EFEB"/>
<path d="M894.2 346.4C893.4 346.4 893 346 892.6 346C849.4 311.6 835.8 278 835 276.8C834.6 276 834.6 275.6 835 274.8L855.8 212C856.2 211.2 857 210.4 857.8 210C859 209.6 859.8 210.4 860.6 211.2L932.6 303.2C933.4 304.4 933.4 305.6 932.6 306.8L896.6 345.6C896.2 346 895.4 346.4 894.2 346.4ZM840.6 275.2C843 280.8 857.4 309.6 894.2 339.6L926.6 304.4L859.4 218.4L840.6 275.2Z" fill="#919191"/>
<path d="M923 273.2C923 273.2 851.8 331.2 859.4 344.4C867 357.6 967.8 430.4 967.8 430.4C959.4 424.4 925.4 430.4 915.4 430.8C870.6 431.6 826.2 434.4 781.8 438.8C719.4 444.8 657.4 454.4 596.2 467.6C571.8 472.8 531.4 475.6 509.8 488.4C488.2 501.2 494.2 520 500.6 544C503.4 554.8 505.8 565.2 508.6 576C549 754 552.6 941.2 567.4 1122.8C567.4 1122.8 938.2 1134 1087.8 1036.8L1005 612.8C1005 612.8 1299.8 636 1329.4 523.6C1359 411.2 923 273.2 923 273.2Z" fill="#2F4156"/>
<path d="M739.8 402L765 486C765 486 765.4 527.6 705.4 531.6C645.4 535.6 625 499.6 625 499.6L583.8 341.6C583.8 341.6 611.4 306.8 571.4 220.8C571.4 220.8 665.8 220.8 745.8 184.4C745.8 184.4 778.6 286 785 331.2C791.4 376.4 739.8 402 739.8 402Z" fill="#F5EFEB"/>
<path d="M696.6 534.4C642.2 534.4 623.8 502 622.6 500.4C622.6 500 622.2 500 622.2 499.6L581 341.6C580.6 340.8 581 340 581.4 339.2C581.8 338.8 607.4 304.4 569 221.2C568.6 220.4 568.6 219.2 569 218.4C569.4 217.6 570.6 217.2 571.4 217.2C572.2 217.2 666.2 216.8 744.6 181.2C745.8 180.4 747.8 181.2 748.2 182.4C748.2 182.4 748.2 182.8 748.6 182.8C749 183.6 781.4 284.8 788.2 330C794.2 371.6 753 397.6 743 403.2L767.4 484.8C767.4 485.2 767.4 485.2 767.4 485.6C767.4 486 767.4 530 705.4 534C702.6 534.4 699.8 534.4 696.6 534.4ZM628.2 498C630.2 501.6 650.2 532 705.8 528.4C760.2 524.8 762.6 490.4 762.6 486L737.4 402.4C737 401.2 737.8 399.6 739 399.2C739.4 398.8 789.4 373.6 783 330.8C777 290.4 750.2 204.4 744.6 187.6C675.4 218 595.4 222.4 576.2 222.8C610.6 299.2 591.8 334.8 587.4 341.6L628.2 498Z" fill="#919191"/>
<path d="M609.4 328.4C605 321.2 598.6 316 591 312.8C583.8 310.4 576.2 308.8 568.2 309.2C563.8 308.8 559.8 309.2 555.8 310.8C553 312 550.6 314 548.6 316C543.4 320.8 540.2 327.2 539.4 334.4C539.4 340 541 345.6 543.8 350.4C546.2 356 549.4 361.2 553.4 366C569.8 385.6 599 388 618.6 371.6L619 371.2" fill="#F5EFEB"/>
<path d="M588.6 384.8H585C571.8 383.6 559.8 377.6 551.4 367.6C547.4 362.8 544.2 357.2 541.4 351.2C538.6 346 537 339.6 537 333.6C537.8 326 541.4 318.8 547 313.6C549.4 311.2 551.8 309.2 555 307.6C559.4 306 564.2 305.2 568.6 306C576.6 306 584.6 307.2 592.2 310C600.6 313.2 607.4 319.2 612.2 326.8C613 328 612.6 330 611 330.8C609.8 331.6 608.2 331.2 607.4 330C603.4 323.6 597.4 318.4 590.2 315.6C583.4 313.2 575.8 312 568.6 312C565 311.6 561 312 557.4 313.2C555 314.4 553 316 551.4 318C546.6 322.4 543.8 328.4 543 334.4C543 339.6 544.6 344.8 547 349.2C549.4 354.4 552.6 359.6 556.2 364.4C563.8 373.2 574.6 378.8 586.2 379.6C597.8 380.4 609.4 376.8 618.2 369.2C619.4 368 621 368.4 622.2 369.6C623.4 370.8 623 372.4 621.8 373.6C613 381.2 601.4 385.6 589.4 385.6L588.6 384.8Z" fill="#919191"/>
<path d="M724.6 262.8C724.6 262.8 768.6 296 764.2 306C759.8 316 739 317.6 739 317.6" fill="#F5EFEB"/>
<path d="M739 320.4C737.4 320.4 736.2 319.2 736.2 317.6C736.2 316 737.4 314.8 739 314.8C744.2 314.4 759 311.6 761.8 304.8C763.8 300.8 745.4 282 723 265.2C721.8 264.4 721.4 262.4 722.6 261.2C723.4 260 725.4 259.6 726.6 260.8C740.2 271.2 771.8 296.4 767.4 307.2C763 318 741.4 320.4 739 320.4Z" fill="#919191"/>
<path d="M656.2 254C656.2 254 665.8 228 688.6 244.4Z" fill="#F5EFEB"/>
<path d="M656.2 256.8C655.8 256.8 655.4 256.8 655.4 256.8C653.8 256.4 653.4 254.8 653.8 253.2C654.2 252.8 658.6 240.4 669.4 237.2C675.8 235.2 683 236.8 690.2 242.4C691.4 243.2 691.8 245.2 691 246.4C690.2 247.6 688.2 248 687 247.2C682.6 243.2 676.6 241.6 671 242.8C663 245.2 659 255.2 659 255.6C658.6 256.4 657.4 256.8 656.2 256.8Z" fill="#919191"/>
<path d="M716.6 236.8C716.6 236.8 719.8 220.4 744.6 232.4Z" fill="#F5EFEB"/>
<path d="M716.6 239.6H716.2C714.6 239.2 713.8 238 714.2 236.4C715.4 232.4 717.8 229.2 721.4 227.2C727.4 224 735.8 225.2 746.2 230C747.4 230.8 748.2 232.4 747.4 233.6C746.6 234.8 745 235.6 743.8 234.8C735.4 230.8 728.6 229.6 724.2 231.6C721.8 232.8 720.2 234.8 719.8 237.2C719 238.8 717.8 239.6 716.6 239.6Z" fill="#919191"/>
<path d="M739.8 402C739.8 402 695.8 414 672.2 407.6C672.2 407.6 703 453.2 754.2 452.4L739.8 402Z" fill="#919191"/>
<path d="M753.4 455.6C701.8 455.6 671.4 411.2 670.2 409.6C669.4 408.8 669.4 407.2 670.2 406.4C671 405.6 672.2 405.2 673.4 405.2C696.2 411.2 739 399.6 739.4 399.6C741 399.2 742.2 400 743 401.6L757.4 452.4C757.8 453.2 757.4 454 757 454.8C756.6 455.6 755.8 456 755 456L753.4 455.6ZM679 411.6C688.6 423.2 714.2 448.4 750.6 449.6L738.2 405.2C729 407.6 700.2 414.4 679 411.6Z" fill="#919191"/>
<path d="M1105.4 26L730.6 359.6L1187 210.8L1105.4 26Z" fill="#F5EFEB"/>
<path d="M730.6 362.4C729.4 362.4 728.6 362 728.2 360.8C727.4 359.6 727.8 358 728.6 357.2L1103 23.1999C1103.8 22.7999 1104.6 22.3999 1105.4 22.3999C1106.2 22.3999 1107 23.1999 1107.4 23.9999L1189.4 208.8C1189.8 209.6 1189.8 210.4 1189.4 211.2C1189 212 1188.6 212.4 1187.8 212.8L731.4 361.6C731 362.4 731 362.4 730.6 362.4ZM1104.2 30.3999L742.6 352.8L1183.4 208.8L1104.2 30.3999Z" fill="#919191"/>
<path d="M837.8 275.6C860.6 272.8 885 250.4 883 226C880.6 194.8 850.6 208.4 837 224C829.4 232.4 811 262.8 823.4 272.8C827.4 275.2 832.6 276.4 837.8 275.6Z" fill="#F5EFEB"/>
<path d="M833.8 278.4C829.4 278.4 825 277.2 821.4 274.4C818.2 272 816.6 268 816.6 264C815.4 250 828.2 229.2 835 221.6C845 210.4 861.8 200.8 873.4 204.8C878.6 206.4 884.6 211.6 885.8 225.6C887.8 251.6 861.8 275.2 838.2 278.4C836.6 278 835 278.4 833.8 278.4ZM867.4 209.6C858.6 209.6 846.2 217.2 839 225.6C832.6 232.8 821 252.4 822.2 264C822.2 266.4 823.4 268.8 825 270.4C828.6 272.8 833 273.6 837.4 272.8C858.2 270.4 881.8 248.8 880.2 226C879.4 217.2 876.6 212 871.8 210.4C870.2 210 868.6 209.6 867.4 209.6Z" fill="#919191"/>
<path d="M709 342.4C709 342.4 743.4 351.2 733.8 378Z" fill="#F5EFEB"/>
<path d="M733.8 380.8C733.4 380.8 733 380.8 733 380.8C731.4 380.4 730.6 378.8 731.4 377.2C733.8 372 733.4 365.6 731 360.4C725 349.2 709 345.2 708.6 345.2C707 344.8 706.2 343.2 706.6 342C707 340.4 708.6 339.6 709.8 340C710.6 340 728.6 344.8 735.8 358C739 364.4 739.4 372.4 736.6 379.2C736.2 380.4 735 381.2 733.8 380.8Z" fill="#919191"/>
<path d="M1187.11 210.32C1215.04 199.876 1221.7 148.633 1201.97 95.8658C1182.24 43.0987 1143.6 8.7891 1115.67 19.2332C1087.73 29.6774 1081.08 80.9203 1100.81 133.687C1120.53 186.455 1159.17 220.764 1187.11 210.32Z" fill="#919191"/>
<path d="M1176.6 215.2C1149 215.2 1115.8 182.4 1097.8 134.8C1077.4 80.4001 1085 27.6001 1114.2 16.4001C1128.6 10.8001 1146.2 16.4001 1163.4 31.6001C1180.6 46.8001 1194.6 68.8001 1204.2 94.8001C1213.8 120.8 1217.8 147.2 1215 169.2C1212.2 192 1202.6 207.6 1187.8 212.8C1184.2 214.8 1180.6 215.2 1176.6 215.2ZM1126.2 20.4001C1123 20.4001 1119.8 20.8001 1116.6 22.0001C1090.2 32.0001 1084.2 81.6001 1103.4 133.2C1122.6 184.8 1159.8 218.4 1186.2 208.4C1198.6 203.6 1207 190 1209.8 169.2C1212.6 148 1209 122.4 1199.4 97.2001C1189.8 72.0001 1176.2 50.4001 1160.2 36.0001C1148.2 25.6001 1136.6 20.0001 1126.2 20.4001Z" fill="#919191"/>
<path d="M1120.2 544.8C1119.8 544.8 1119.4 544.8 1119 544.4C1011.8 488.8 888.6 372.4 887.4 371.2C886.2 370 886.2 368.4 887.4 367.2C888.6 366 890.2 366 891.4 367.2C892.6 368.4 1015.4 484 1121.8 539.6C1123 540.4 1123.8 542 1123 543.2C1122.2 544.4 1121.4 544.8 1120.2 544.8Z" fill="#919191"/>
<path d="M1061 902.8C1059.8 902.8 1058.6 902 1058.2 900.4L993 550.8C992.6 549.2 993.8 548 995.4 547.6C997 547.2 998.2 548.4 998.6 550L1063.8 899.6C1064.2 901.2 1063 902.4 1061.4 902.8H1061Z" fill="#919191"/>
<path d="M721.4 529.2L694.2 566.4L721.4 583.2L757 930L831 968.8L863.8 895.6L743.8 578.4L757.4 554L721.4 529.2Z" fill="#919191"/>
<path d="M831 971.6C830.6 971.6 830.2 971.6 829.8 971.2L755.8 932.4C755 932 754.2 931.2 754.2 930.4L719 584.8L692.6 568.8C691.8 568.4 691.4 567.6 691.4 566.8C691.4 566 691.4 565.2 691.8 564.4L719.4 527.2C720.2 526 722.2 525.6 723.4 526.4L759.4 551.2C760.6 552 761 553.6 760.2 554.8L747 578L866.2 894C866.6 894.8 866.6 895.6 866.2 896L833.4 969.2C833 970 832.6 970.4 831.8 970.8C831.8 971.6 831.4 971.6 831 971.6ZM759.4 928.4L829.4 965.2L860.2 895.6L741 579.2C740.6 578.4 740.6 577.6 741 576.8L753.4 554.4L721.8 532.4L697.8 565.2L723 580.4C723.8 580.8 724.2 581.6 724.2 582.4L759.4 928.4Z" fill="#919191"/>
<path d="M447.8 1135.6C447.4 1134.8 447 1134.4 446.6 1133.6L445.4 1132.8C444.6 1132.4 443.4 1132 442.6 1132H441C440.2 1132.4 439.4 1132.8 438.6 1133.6L434.6 1137.6C434.2 1138 433.8 1138.8 433.4 1139.6C433 1140.4 433 1141.2 433 1141.6C433 1142.4 433 1143.2 433.4 1143.6C433.8 1144.4 434.2 1144.8 434.6 1145.6L435.8 1146.4C436.6 1146.8 437.8 1147.2 438.6 1147.2H440.2C441 1146.8 441.8 1146.4 442.6 1145.6L446.6 1141.6C447 1141.2 447.4 1140.4 447.8 1139.6C448.2 1138.8 448.2 1138 448.2 1137.6C448.2 1137.2 448.2 1136.4 447.8 1135.6Z" fill="#2F4156"/>
<path d="M1327.8 592C1325.8 589.6 1322.2 589.6 1319.8 592C1309.8 604 1307 620.8 1312.6 635.6C1313.4 638.4 1316.6 640.4 1319.4 639.6C1322.2 638.8 1324.2 635.6 1323.4 632.8C1323 631.2 1322.2 630 1321.8 628.4C1321.4 627.6 1321.4 626.8 1321.4 626C1321.4 625.2 1321.4 625.2 1321.4 624.8V624.4C1321.4 622.8 1321 621.2 1321 620C1321 619.2 1321 618.4 1321 617.6C1321 616.8 1321 616.8 1321 616.4C1321 616 1321 616 1321 615.6C1321.4 614 1321.4 612.8 1321.8 611.2C1321.8 610.4 1322.2 609.6 1322.6 608.8C1323 608 1323.4 606.8 1323 607.6C1323.8 606 1324.2 604.8 1325.4 603.2C1325.8 602.4 1326.2 602 1326.6 601.2C1327 600.8 1327 600.4 1327.4 600.4L1327.8 600C1329.8 597.6 1329.8 594 1327.8 592Z" fill="#2F4156"/>
<path d="M1263.4 949.6C1256.6 942.8 1248.6 937.2 1239.8 933.2C1238.6 926.8 1234.6 921.2 1229.4 918C1217 910 1200.6 914 1187.8 918C1181 920 1183.8 930.8 1190.6 928.8C1198.6 925.6 1207.4 924 1216.2 924.8C1220.6 925.2 1224.2 927.6 1227 930.8C1226.2 930.8 1225.8 930.8 1225 930.8C1217.8 931.2 1211 934.8 1207 940.8C1202.6 946.4 1203.4 954.4 1208.6 959.6C1219 968.4 1233.8 959.6 1238.2 948.8C1238.6 947.6 1239 946.4 1239.4 945.2C1245.4 948.8 1250.6 952.8 1255.4 957.6C1261 962.4 1269 954.4 1263.4 949.6ZM1219.4 951.6C1216.2 952 1214.6 950.4 1216.2 947.2C1218.6 943.6 1222.6 941.6 1227 942C1227.8 942 1228.6 942 1229 942C1228.2 946.8 1224.2 950.8 1219.4 951.6Z" fill="#2F4156"/>
<path d="M347.8 1156.8L347.4 1156.4L346.6 1155.2L344.6 1152.4C343.4 1150.8 342.2 1148.8 341.4 1146.8C340.6 1144.8 339.4 1142.8 338.6 1141.2C338.6 1140.8 337.8 1139.2 338.2 1140.8C337.8 1140.4 337.8 1140 337.8 1139.2C337.8 1138.4 337 1137.2 336.6 1136C335.8 1133.2 332.6 1131.2 329.8 1132.4C327 1133.2 325.4 1136.4 325.8 1139.2C329 1148.4 333.8 1157.2 339.8 1164.8C341 1166 342.2 1166.4 343.8 1166.4C345.4 1166.4 346.6 1166 347.8 1164.8C349 1163.6 349.4 1162.4 349.4 1160.8C349.4 1159.6 349 1158 347.8 1156.8Z" fill="#2F4156"/>
<path d="M1213.4 1065.2C1210.6 1064.4 1207.4 1066.4 1206.6 1069.2L1206.2 1070C1205.8 1070.4 1205.8 1071.2 1205.4 1071.6C1205 1072.8 1204.2 1074 1203.4 1075.2C1202.2 1077.6 1200.6 1080 1199 1082.4C1198.2 1083.6 1197.4 1084.4 1196.6 1085.6L1195.8 1086.8L1195 1087.6C1193.4 1089.6 1191.4 1091.6 1189.4 1093.6C1187 1096 1187 1099.2 1189.4 1101.6C1191.8 1104 1195 1104 1197.4 1101.6C1205.8 1092.8 1212.6 1082.8 1217.4 1071.2C1218.2 1068.4 1216.6 1065.2 1213.4 1064.4C1213.8 1065.2 1213.8 1065.2 1213.4 1065.2Z" fill="#2F4156"/>
<path d="M1347.8 767.6C1346.2 764.8 1342.6 764 1340.2 765.6L1299.8 791.6C1297 793.2 1296.2 796.8 1297.8 799.2C1299.4 801.6 1303 802.8 1305.4 801.2L1345.8 775.2C1348.6 773.6 1349.4 770.4 1347.8 767.6Z" fill="#2F4156"/>
<path d="M1364.6 1114C1361 1110.8 1357 1108.4 1352.6 1107.2C1348.6 1106.4 1345 1104.8 1341.8 1102.4C1338.6 1099.2 1339.8 1094 1340.6 1090C1342.2 1085.2 1342.2 1079.6 1341 1074.8C1337.8 1065.6 1328.2 1058.4 1319 1065.6C1316.6 1067.6 1316.6 1071.2 1319 1073.6C1321.4 1075.6 1324.6 1075.6 1327 1073.6C1326.6 1074 1326.6 1073.6 1327 1074C1327.8 1074.8 1328.6 1075.6 1329 1076.4C1330.6 1079.2 1330.6 1082.4 1329.8 1085.2C1328.2 1093.6 1326.2 1103.2 1333 1110C1338.2 1115.6 1345.8 1116.8 1352.6 1119.6C1355.8 1120.8 1358.2 1123.6 1359 1126.8V1127.6L1358.6 1128C1355.8 1129.6 1355 1132.8 1356.6 1135.6C1358.2 1138.4 1361.4 1139.2 1364.2 1137.6C1373.4 1132 1370.6 1120.8 1364.6 1114Z" fill="#2F4156"/>
<path d="M515 1080.4L524.6 1070.4C529.4 1065.2 521.8 1057.2 516.6 1062.4L505.4 1074C501.4 1078 497.8 1082 499 1088C499.8 1090.4 500.6 1092.8 501.8 1094.8C502.6 1097.2 503.8 1099.6 505 1102C507 1106.8 509.4 1112 511.4 1116.8C513 1119.6 516.6 1120.4 519 1118.8C521.8 1117.2 522.6 1114 521 1111.2C517.4 1103.2 513.8 1095.2 510.6 1086.8C510.6 1086.4 510.2 1086 510.2 1085.6H510.6C512.2 1083.6 513.4 1082 515 1080.4Z" fill="#2F4156"/>
<path d="M392.6 507.2C388.2 501.6 381 498.8 374.2 500C378.2 491.2 384.2 483.2 391.8 477.2C397.4 472.4 389.4 464.8 383.8 469.2C373 478 365 490 361 503.6C361 504 360.6 504.4 360.6 504.4C359 505.2 357.8 506 356.2 507.2C344.2 515.6 337 529.6 337 544.4C337 547.6 339.4 550 342.6 550C345.8 550 348.2 547.6 348.2 544.4C348.2 536 351 528 356.6 522C357 521.6 357.8 520.8 358.2 520.4C358.2 521.6 358.6 522.8 359 523.6C361.4 530 367.8 534 374.2 532.8C381 532.4 387.4 529.6 392.6 525.2C396.6 519.6 396.6 512 392.6 507.2ZM384.6 516.8C383.8 519.6 377 520.8 374.2 521.2C370.2 521.6 369 520 369.4 516.4C369.4 515.2 369.8 513.6 370.2 512.4C373 511.2 376.2 510.8 379.4 511.2C381.4 511.6 385.4 514 384.6 516.8Z" fill="#2F4156"/>
<path d="M271 482.8C270.2 476.8 267 471.2 261.4 468C256.6 464.8 250.2 463.6 247 459.2C243.8 455.6 243 450.4 245 445.6C245.8 442.8 243.8 439.6 241 438.8C238.2 438 235 439.6 234.2 442.8C230.6 454.4 235.8 467.2 246.6 472.8C249 474 251.8 475.2 254.2 476.8C255.4 477.2 256.2 478 257.4 478.8L258.2 479.6L258.6 480L259 480.8L259.4 481.6C259.4 481.6 259.4 482.4 259.8 482.8C259.8 483.2 259.8 483.6 259.8 483.6V484V484.4C257 485.6 255.4 488.8 256.6 491.6C257.4 494.4 260.6 495.6 263.4 495.2C269 493.2 272.2 487.6 271.4 481.6L271 482.8Z" fill="#2F4156"/>
<path d="M1109.4 647.6C1106.2 644.8 1099 642 1099.8 636.4C1100.6 630.8 1107.4 626 1111.8 623.2C1117.8 619.2 1112.2 609.6 1106.2 613.6C1097 619.6 1085.8 630 1089.4 642C1091.4 647.2 1095 651.2 1099.8 654C1101 654.8 1104.6 657.2 1104.6 658.8C1104.6 659.6 1103 660.4 1102.2 660.4C1093.8 664.8 1083.8 667.2 1083.8 679.2C1083.8 685.6 1087.4 690.8 1089.4 696.4C1090.6 699.6 1092.2 704.8 1088.6 706.8C1082.2 709.6 1087.8 719.6 1094.2 716.4C1104.2 712 1102.6 698.8 1099 690.8C1097 686.8 1092.6 679.6 1096.6 676C1099.4 673.2 1104.6 672.4 1107.8 670.4C1117.4 665.2 1117.4 654.4 1109.4 647.6Z" fill="#2F4156"/>
<path d="M1208.2 735.6C1193.8 734.4 1181.4 744.8 1179.8 759.2C1179.8 760.8 1179.8 762.8 1179.4 764.4C1179.4 765.6 1179 766.8 1178.2 767.6C1177 768.8 1175.8 769.6 1174.2 770C1169.4 771.2 1164.2 771.2 1159 770.4C1156.2 769.6 1153 771.6 1152.2 774.4C1151.4 777.6 1153.4 780.4 1156.2 781.2C1167.4 783.2 1183.8 783.2 1189 770.8C1190.2 767.2 1190.6 763.6 1190.6 759.6C1191 757.2 1191.8 754.8 1193.4 752.8C1196.6 748.4 1202.2 746 1207.8 746.8C1211 746.8 1213.4 744.4 1213.4 741.2C1213.4 738.4 1211 735.6 1208.2 735.6Z" fill="#2F4156"/>
<path d="M1145.4 976.8C1144.6 974 1141.4 972 1138.6 972.8C1129.4 975.2 1121 980.4 1115 988C1113.8 989.2 1113.4 990.4 1113.4 992C1113.4 995.2 1115.8 997.6 1119 997.6C1120.6 997.6 1121.8 997.2 1123 996C1124.2 994.4 1125.8 992.8 1127.4 991.6C1127.8 991.2 1128.2 990.8 1128.6 990.8L1129 990.4L1129.4 990L1129.8 989.6L1131.4 988.8C1133 987.6 1135 986.8 1136.6 986L1137 985.6L1138.6 985.2C1139.8 984.8 1140.6 984.4 1141.8 984.4C1144.6 982.8 1146.6 979.6 1145.4 976.8Z" fill="#2F4156"/>
<path d="M324.2 604.4C317 596 304.2 594.8 295.4 601.6C288.6 594.8 279.4 591.6 269.8 591.6C263.8 592 258.2 593.6 253 596.4C247.8 592.8 241.8 590.8 235.4 591.6C219.4 593.2 210.2 608.4 208.6 622.8C207.8 630 219.4 630 219.8 622.8C220.6 614.4 225.4 605.2 234.2 603.2C237.8 602.4 241.4 602.8 244.6 604.4C243 606.8 242.6 610 242.6 612.8C243 618.4 248.2 622.8 253.8 622.4C260.6 622 263.4 615.6 261.8 609.6C261.4 608 261 606.8 260.2 605.2C263.4 603.6 266.6 602.8 270.2 602.8C278.2 602.4 285.4 606 290.2 612.4C291.8 615.2 295.4 616 298.2 614.4C299 614 299.8 613.2 300.2 612.4C303.8 608 310.2 607.2 314.6 610.4C315.4 610.8 316.2 611.6 316.6 612.4C321 618 329 610 324.2 604.4Z" fill="#2F4156"/>
<path d="M621.593 560.549L2.9624 730.701L115.619 1140.29L734.25 970.141L621.593 560.549Z" fill="#F5EFEB"/>
<path d="M115.4 1142.8C114.2 1142.8 113 1142 112.6 1140.8L0.200078 731.6C-0.199922 730 0.600078 728.4 2.20008 728L621 558C622.6 557.6 624.2 558.4 624.6 560L737 969.6C737.4 971.2 736.6 972.8 735 973.2L116.2 1142.8C115.8 1142.8 115.8 1142.8 115.4 1142.8ZM6.20008 732.4L117.4 1136.4L731 968L619.8 564L6.20008 732.4Z" fill="#919191"/>
<path d="M223.4 775.6L242.6 770L282.2 806.4H282.6L270.2 762.4L284.2 758.4L302.2 822L283.8 827.2L243.4 790L256.2 835.2L242.2 839.2L223.4 775.6Z" fill="#2F4156"/>
<path d="M297 754.8L340.2 742.4L343.8 755.2L314.6 763.6L317.8 775.6L345.4 767.6L349 780.4L321.4 788.4L325 801.2L355.8 792.4L359.4 805.2L315 817.6L297 754.8Z" fill="#2F4156"/>
<path d="M346.2 740.8L361.4 736.4L383 774H383.4L385 729.6L397.8 726L422.6 764L421.4 719.2L435.4 715.2L435 784L422.6 787.6L396.2 747.6L394.6 795.6L382.6 799.2L346.2 740.8Z" fill="#2F4156"/>
<path d="M160.6 927.6C158.6 926.4 156.6 925.6 154.6 925.2C152.2 924.8 149.8 925.2 147.4 926C145 926.8 142.6 928 140.6 929.6C138.6 931.2 137 933.2 135.8 935.6C134.6 938 133.8 940.4 133.8 943.2C133.4 949.2 135 954.8 138.6 959.6C140.2 961.6 142.2 963.6 144.2 964.8C146.2 966 148.6 967.2 151 967.6C153.4 968 156.2 968 158.6 967.2C161.4 966.4 163.8 965.2 165.8 963.2C167.8 961.2 169 959.2 169.8 956.8L183.8 962.4C182.2 966.8 179.4 970.8 175.8 973.6C172.2 976.4 168.2 978.8 163.8 980C159 981.2 154.2 982 149.4 981.6C145 981.2 140.6 980 136.6 978C132.6 976 129.4 973.2 126.6 969.6C120.6 961.6 117.8 952 118.6 942C119 937.6 120.6 933.2 122.6 929.6C125 925.6 127.8 922.4 131.4 920C135.4 917.2 139.8 915.2 144.6 914C146.6 913.6 148.2 913.2 150.2 912.8C152.2 912.4 154.2 912.4 156.2 912.8C158.2 913.2 160.6 913.6 162.6 914C164.6 914.8 166.6 915.6 168.6 917.2L160.2 929.2L160.6 927.6Z" fill="#2F4156"/>
<path d="M196.6 899.6L208.2 896.4L253.8 952L238.2 956.4L229 944.4L204.2 951.6L202.6 966.4L187.4 970.8L196.6 899.6ZM207.4 916.4L205.4 938.4L221 934L207.4 916.4Z" fill="#2F4156"/>
<path d="M242.2 886.4L263.4 880.4L289.8 917.6L292.6 872L313.8 866L331.8 929.6L317.8 933.6L304.2 884.8L301.4 938.4L290.6 941.6L260.6 897.6L274.2 946.4L260.2 950.4L242.2 886.4Z" fill="#2F4156"/>
<path d="M326.6 862.4L350.2 855.6C353.4 854.8 356.6 854 359.8 854C362.6 853.6 365.4 854 368.2 854.8C371 855.6 373 857.2 375 859.2C377.4 861.6 378.6 864.8 379.4 868C380.6 871.2 380.6 874.4 380.2 878C379.8 880.8 378.6 883.2 377 885.6C375.4 887.6 373 889.6 370.6 890.8C367.8 892.4 364.6 893.6 361.4 894.4L351 897.2L358.2 922L344.2 926L326.6 862.4ZM348.2 885.2L357.4 882.4C358.6 882 359.8 881.6 361 880.8C362.2 880.4 363 879.6 363.8 878.8C364.6 878 365 876.8 365.4 876C365.8 874.8 365.8 873.2 365 872C364.6 870.4 363.8 869.2 362.6 868.4C361.4 867.6 360.2 867.2 359 866.8C357.8 866.4 356.2 866.4 355 866.8C353.4 867.2 352.2 867.2 350.6 867.6L343.4 869.6L348.2 885.2Z" fill="#2F4156"/>
<path d="M397.4 842.4L409 839.2L454.6 894.8L439 899.2L429.8 887.2L405 894.4L403.4 909.2L387.8 913.6L397.4 842.4ZM408.2 859.2L406.2 881.2L421.8 876.8L408.2 859.2Z" fill="#2F4156"/>
<path d="M442.6 829.6L456.6 825.6L474.6 889.2L460.6 893.2L442.6 829.6Z" fill="#2F4156"/>
<path d="M543.4 864.4C539.8 867.6 536.2 870.4 531.8 872.8C527.4 875.2 523 876.8 518.6 878C513.8 879.2 509 880 504.2 879.6C499.8 879.2 495.4 878 491.4 876C487.4 874 484.2 871.2 481.4 867.6C475.4 859.6 472.6 850 473.4 840C473.8 835.6 475.4 831.2 477.4 827.6C479.8 823.6 482.6 820.4 486.2 818C490.2 815.2 494.6 813.2 499.4 812C504.2 810.8 509 810 513.8 810C518.2 810 523 811.2 527 813.2L520.6 826.8C518.2 825.2 515.8 824.4 513 824C509.8 823.6 506.6 824 503.4 825.2C500.6 826 497.8 827.2 495.8 829.2C493.8 830.8 492.2 832.8 491 835.2C489.8 837.6 489 840 489 842.8C488.6 845.6 489 848.4 489.8 851.2C490.6 854 491.8 856.8 493.4 859.2C495 861.2 497 863.2 499 864.4C501.4 865.6 503.8 866.4 506.6 866.8C509.4 867.2 512.2 866.8 515 866C517.8 865.2 520.2 864 522.6 862.8C524.2 861.6 525.8 860.4 527.4 859.2L524.6 848.8L513.4 852L509.8 839.2L534.6 832L543.4 864.4Z" fill="#2F4156"/>
<path d="M539 802L558.2 796.4L597.8 832.8H598.2L585.8 788.8L599.8 784.8L617.8 848.4L599.4 853.6L559 816.4L571.8 861.6L557.8 865.6L539 802Z" fill="#2F4156"/>
<path d="M449.8 1050.8C449.8 1050.8 451 1062.8 433.8 1074.8C416.6 1086.8 360.6 1102.4 348.6 1096.4C336.6 1090.4 320.2 1080.8 310.6 1063.6C301 1046.4 288.2 1024.8 295 1016.4C301.8 1008 315 1020.8 331 1048C331 1048 311.4 999.6 323.4 996.4C335.4 993.2 343.4 1006 359.8 1029.2C359.8 1029.2 339 978 354.6 978.4C370.2 978.8 404.6 1036.4 404.6 1033.2C404.6 1030 384.6 980.8 401.4 990C418.2 999.2 432.2 1050 432.2 1050L449.8 1050.8Z" fill="#F5EFEB"/>
<path d="M357 1100.8C353.8 1100.8 350.6 1100.4 347.4 1099.2C335.4 1093.2 318.2 1083.2 308.2 1065.2L307 1063.2C296.6 1044.8 285 1024.4 292.6 1014.8C294.6 1012.4 297.4 1010.8 300.6 1011.2C306.2 1011.6 313 1017.2 321 1027.6C317.8 1016 315 1003.2 318.2 997.6C319 995.6 320.6 994 322.6 993.6C333 991.2 340.6 997.6 350.6 1011.2C347 999.2 343.8 984.8 348.2 978.4C349.8 976.4 352.2 974.8 354.6 975.2C365.8 975.2 381.8 996.4 397 1017.6C391.8 1000.8 390.2 990.4 394.6 986.8C396.2 985.6 398.6 984.8 403 986.8C419.4 995.2 431.8 1036.8 434.6 1046.4L450.2 1047.6C451.4 1047.6 452.6 1048.8 452.6 1050C452.6 1050.4 453.8 1064 435.4 1076.8C421.4 1086.8 378.6 1100.4 357 1100.8ZM299.8 1017.2C298.6 1017.2 297.8 1017.6 297 1018.8C291.8 1025.2 303.8 1046.8 311.8 1060.8L313 1062.8C322.2 1079.2 338.6 1088.8 349.8 1094.4C359.8 1099.6 414.6 1085.2 432.2 1072.8C443.4 1064.8 446.2 1057.2 446.6 1053.6L431.8 1052.4C430.6 1052.4 429.4 1051.6 429.4 1050.4C425.8 1036.4 413.4 999.2 400.2 992.4C398.6 991.6 397.8 991.6 397.8 991.6C396.6 992.8 396.6 1000 405 1025.2C406.2 1027.6 407 1030.4 407.4 1033.2C407.4 1034.4 406.6 1035.6 405.4 1036C403 1036.8 403 1036.4 395.8 1026.4C387.4 1014 364.6 981.2 354.2 981.2C353.4 981.2 352.6 981.6 352.2 982C348.2 987.6 355.4 1012.4 361.8 1028.4C362.2 1030 361.8 1031.6 360.2 1032C359 1032.4 357.4 1032 357 1031.2L355 1028.4C339.4 1006 332.6 997.2 323.4 999.6C323 999.6 322.6 1000 322.6 1000.4C319 1007.2 327 1032.8 333 1047.2C333.4 1048.8 332.6 1050.4 331.4 1050.8C330.2 1051.2 329 1050.8 328.2 1049.6C311 1020.4 302.2 1017.6 299.8 1017.2Z" fill="#919191"/>
</svg>
