<svg width="163" height="69" viewBox="0 0 163 69" fill="none" xmlns="http://www.w3.org/2000/svg">
<path fill-rule="evenodd" clip-rule="evenodd" d="M12.1158 13.8454C12.3175 13.8454 12.456 14.2482 12.3588 14.4259L6.82925 24.5329C6.33269 25.4406 6.98581 26.5512 8.01612 26.5512C8.32695 26.5512 8.57895 26.8045 8.57895 27.117V44.7138C8.57895 45.466 9.18541 46.0757 9.93352 46.0757H17.1579C17.906 46.0757 18.5125 45.466 18.5125 44.7138V27.117C18.5125 26.8045 18.7645 26.5512 19.0753 26.5512C20.1056 26.5512 20.7587 25.4406 20.2622 24.5329L14.7326 14.4259C14.6354 14.2482 14.7739 13.8454 14.9757 13.8454H24.7609C26.0479 13.8454 27.0914 14.8944 27.0914 16.1885V43.8059C27.0914 50.0736 22.0376 55.1546 15.8033 55.1546H11.2881C5.05386 55.1546 0 50.0736 0 43.8059V16.1885C0 14.8944 1.04343 13.8454 2.33056 13.8454H12.1158Z" fill="#F5EFEB"/>
<path d="M40.4678 27.6908H45.9425C49.6676 27.6908 51.9629 28.3338 52.8283 29.6201C53.2421 30.2254 53.562 30.8117 53.7877 31.3791C54.0512 31.9465 54.2205 32.8356 54.2957 34.0461C54.4838 36.2402 54.5779 38.6802 54.5779 41.366C54.5779 44.0517 54.5592 46.0001 54.5215 47.2105C54.4838 48.3833 54.3521 49.5937 54.1264 50.8421C53.9383 52.0526 53.6749 52.9416 53.3362 53.509C52.9976 54.0386 52.4896 54.5304 51.8123 54.9844C51.135 55.4383 50.3449 55.7409 49.4418 55.8923C48.5388 56.0058 47.3723 56.0625 45.9425 56.0625H40.4678V51.8067H43.5156C44.4938 51.8067 45.1147 51.6744 45.3781 51.4095C45.6791 51.1447 45.8296 50.7286 45.8296 50.1612V33.6488C45.8296 33.0435 45.6791 32.6086 45.3781 32.3437C45.1147 32.0789 44.4938 31.9465 43.5156 31.9465H40.4678V27.6908ZM38.7746 68.7163H35.3317C33.6762 68.7163 32.4156 68.3002 31.5502 67.4679C30.7223 66.6735 30.3085 65.6333 30.3085 64.347V32.06C30.3085 30.7738 30.7223 29.7336 31.5502 28.9391C32.4156 28.1068 33.6762 27.6908 35.3317 27.6908H38.7746V68.7163Z" fill="#F5EFEB"/>
<path d="M89.6322 15.037V52.8281C89.6322 54.1521 89.4254 55.0223 89.0113 55.4383C88.6352 55.8544 87.8073 56.0625 86.5279 56.0625H78.5134C76.2935 56.0625 74.826 55.722 74.111 55.0411C73.4338 54.3602 72.8319 52.6012 72.305 49.764C71.2515 44.1652 69.7277 35.1242 67.7333 22.6406C67.5829 21.6949 67.3572 21.0896 67.056 20.8248C66.7928 20.56 66.3223 20.4087 65.645 20.3709H58.7028V15.037H70.9504C71.8911 15.037 72.6436 15.1505 73.208 15.3775C73.7724 15.6044 74.2239 16.0962 74.5626 16.8528C74.9389 17.5716 75.1834 18.2714 75.2963 18.9523C75.4469 19.6332 75.5975 20.4276 75.7478 21.3355C75.9361 22.4326 76.1993 24.0404 76.538 26.1587C77.1778 30.4333 78.1748 36.4672 79.5293 44.2599C80.0563 47.5889 80.4136 49.4614 80.6017 49.8775C80.8275 50.2558 81.2038 50.4828 81.7305 50.5584V17.3067C81.7305 16.6258 81.9188 16.0773 82.2949 15.6612C82.6713 15.2451 83.1605 15.037 83.7624 15.037H89.6322ZM58.7028 22.3569H64.5726C65.1747 22.3569 65.6639 22.565 66.0401 22.9811C66.4164 23.3971 66.6045 23.9457 66.6045 24.6266V52.8281C66.6045 54.1144 66.4351 54.9844 66.0965 55.4383C65.7579 55.8544 65.0806 56.0625 64.0646 56.0625H58.7028V22.3569ZM102.522 56.0625H102.409C98.6843 56.0625 96.3892 55.4195 95.5236 54.1332C95.1098 53.5279 94.7712 52.9416 94.5077 52.3742C94.282 51.8067 94.1316 50.9177 94.0562 49.7072C93.8681 47.5131 93.774 45.0731 93.774 42.3873C93.774 39.7016 93.793 37.7723 93.8304 36.5995C93.8681 35.3891 93.981 34.1784 94.1691 32.9679C94.3948 31.7196 94.677 30.8305 95.0157 30.301C95.3543 29.7336 95.8623 29.2229 96.5396 28.7689C97.2169 28.315 98.007 28.0312 98.9101 27.9178C99.8131 27.7664 100.98 27.6908 102.409 27.6908H102.522V56.0625ZM117.535 47.097V49.991C117.535 54.0386 115.485 56.0625 111.383 56.0625H104.272V51.8067H107.32C108.11 51.8067 108.599 51.6933 108.787 51.4663C108.975 51.2014 109.069 50.7475 109.069 50.1044V48.2887C109.069 47.7212 109.126 47.3996 109.239 47.324C109.389 47.2484 109.483 47.2105 109.521 47.2105C109.559 47.1726 109.653 47.1538 109.803 47.1538C109.991 47.1159 110.123 47.097 110.198 47.097C112.644 47.097 115.09 47.097 117.535 47.097ZM104.272 27.6908H110.819C113.415 27.6908 115.184 28.2015 116.124 29.2229C117.065 30.2442 117.535 31.7575 117.535 33.7623V38.7558C117.535 42.1604 115.692 43.8627 112.004 43.8627H103.708V39.6069H106.755C107.658 39.6069 108.26 39.4934 108.561 39.2664C108.9 39.0395 109.069 38.6044 109.069 37.9613V33.6488C109.069 33.0058 108.975 32.5707 108.787 32.3438C108.599 32.0789 108.11 31.9465 107.32 31.9465H104.272V27.6908ZM142.907 27.6908V36.0888C142.907 37.9425 142.437 39.3232 141.496 40.2311C140.593 41.1011 139.013 41.5362 136.755 41.5362H132.466V37.2804H133.369C133.971 37.2804 134.31 37.0346 134.385 36.5428C134.422 36.3158 134.441 35.9942 134.441 35.5781V30.0173C134.441 28.4664 135.118 27.6908 136.473 27.6908H142.907ZM130.773 46.9268H129.869C129.267 46.9268 128.929 47.1726 128.854 47.6645C128.816 47.8914 128.797 48.2131 128.797 48.6291V53.736C128.797 55.2869 128.12 56.0625 126.765 56.0625H120.331V48.1184C120.331 46.2647 120.783 44.9029 121.686 44.0329C122.626 43.125 124.225 42.6711 126.483 42.6711H130.773V46.9268ZM132.466 42.6711H136.755C139.013 42.6711 140.593 43.125 141.496 44.0329C142.437 44.9029 142.907 46.2647 142.907 48.1184V56.0625H136.473C135.118 56.0625 134.441 55.2869 134.441 53.736V48.6291C134.441 47.8726 134.347 47.3996 134.159 47.2105C133.971 47.0215 133.707 46.9268 133.369 46.9268H132.466V42.6711ZM120.331 27.6908H126.765C128.12 27.6908 128.797 28.4664 128.797 30.0173V35.5781C128.797 36.3346 128.891 36.8076 129.079 36.9967C129.267 37.1858 129.531 37.2804 129.869 37.2804H130.773V41.5362H126.483C124.225 41.5362 122.626 41.1011 121.686 40.2311C120.783 39.3232 120.331 37.9425 120.331 36.0888V27.6908ZM160.624 55.6086C160.624 55.8355 160.511 55.9869 160.286 56.0625H155.996C153.249 56.0625 151.255 55.5139 150.013 54.4169C148.772 53.32 148.151 51.3907 148.151 48.6291V32.06H145.273C144.332 32.06 143.861 31.4926 143.861 30.3577V27.6908H148.151V15.037H151.594C153.249 15.037 154.491 15.4531 155.319 16.2854C156.184 17.1176 156.617 18.1768 156.617 19.463V49.6505C156.617 51.0502 157.407 51.75 158.988 51.75H160.173C160.474 51.75 160.624 51.8823 160.624 52.1472V55.6086ZM162.374 27.6908V30.3577C162.374 31.4926 161.903 32.06 160.963 32.06H158.028V27.6908H162.374Z" fill="#2F4156"/>
</svg>
