<svg width="221" height="220" viewBox="0 0 221 220" fill="none" xmlns="http://www.w3.org/2000/svg">
<rect x="0.5" width="220" height="220" rx="16" fill="#B3CFFF"/>
<path d="M110.5 35C151.922 35 185.5 68.5775 185.5 110C185.5 151.422 151.922 185 110.5 185C69.0775 185 35.5 151.422 35.5 110C35.5 68.5775 69.0775 35 110.5 35ZM110.5 50C94.587 50 79.3258 56.3214 68.0736 67.5736C56.8214 78.8258 50.5 94.087 50.5 110C50.5 125.913 56.8214 141.174 68.0736 152.426C79.3258 163.679 94.587 170 110.5 170C126.413 170 141.674 163.679 152.926 152.426C164.179 141.174 170.5 125.913 170.5 110C170.5 94.087 164.179 78.8258 152.926 67.5736C141.674 56.3214 126.413 50 110.5 50ZM110.5 65C112.337 65.0002 114.11 65.6747 115.483 66.8954C116.856 68.1161 117.733 69.7981 117.947 71.6225L118 72.5V106.895L138.302 127.197C139.648 128.547 140.429 130.358 140.487 132.263C140.545 134.167 139.876 136.023 138.616 137.452C137.355 138.881 135.598 139.777 133.701 139.958C131.805 140.139 129.91 139.591 128.402 138.425L127.697 137.802L105.197 115.302C104.032 114.136 103.283 112.618 103.067 110.982L103 110V72.5C103 70.5109 103.79 68.6032 105.197 67.1967C106.603 65.7902 108.511 65 110.5 65Z" fill="#488CFF"/>
</svg>
