<svg width="221" height="220" viewBox="0 0 221 220" fill="none" xmlns="http://www.w3.org/2000/svg">
<rect x="0.5" width="220" height="220" rx="16" fill="#B3CFFF"/>
<path d="M35.5 102.5V54.5C35.5 53.3065 35.9741 52.1619 36.818 51.318C37.6619 50.4741 38.8065 50 40 50H86.335C87.4075 49.9999 88.4449 50.3829 89.26 51.08L112.99 71.42C113.805 72.1171 114.842 72.5001 115.915 72.5H181C181.591 72.5 182.176 72.6164 182.722 72.8425C183.268 73.0687 183.764 73.4002 184.182 73.818C184.6 74.2359 184.931 74.732 185.157 75.2779C185.384 75.8239 185.5 76.4091 185.5 77V102.5M35.5 102.5V165.5C35.5 166.693 35.9741 167.838 36.818 168.682C37.6619 169.526 38.8065 170 40 170H181C182.193 170 183.338 169.526 184.182 168.682C185.026 167.838 185.5 166.693 185.5 165.5V102.5M35.5 102.5H185.5" stroke="#488CFF" stroke-width="14" stroke-linecap="round" stroke-linejoin="round"/>
</svg>
