<svg width="221" height="220" viewBox="0 0 221 220" fill="none" xmlns="http://www.w3.org/2000/svg">
<rect x="0.5" width="220" height="220" rx="16" fill="#B3CFFF"/>
<path d="M50.5 117.5C63.8732 119.089 76.3229 125.131 85.8457 134.654C95.3685 144.177 101.411 156.627 103 170C109.629 166.178 115.175 160.729 119.112 154.167C123.049 147.605 125.247 140.148 125.5 132.5C138.093 128.07 149.09 120.005 157.1 109.325C165.11 98.6452 169.773 85.83 170.5 72.5C170.5 66.5326 168.129 60.8097 163.91 56.5901C159.69 52.3705 153.967 50 148 50C134.67 50.7268 121.855 55.39 111.175 63.3999C100.495 71.4098 92.4301 82.4067 88 95C80.352 95.2526 72.8947 97.4513 66.333 101.388C59.7713 105.325 54.3219 110.871 50.5 117.5Z" stroke="#488CFF" stroke-width="14" stroke-linecap="round" stroke-linejoin="round"/>
<path d="M73 125C65.1942 129.407 58.8824 136.044 54.8737 144.062C50.8649 152.079 49.342 161.111 50.5 170C59.3887 171.158 68.4207 169.635 76.4382 165.626C84.4556 161.618 91.0932 155.306 95.5 147.5M125.5 87.5C125.5 89.4891 126.29 91.3968 127.697 92.8033C129.103 94.2098 131.011 95 133 95C134.989 95 136.897 94.2098 138.303 92.8033C139.71 91.3968 140.5 89.4891 140.5 87.5C140.5 85.5109 139.71 83.6032 138.303 82.1967C136.897 80.7902 134.989 80 133 80C131.011 80 129.103 80.7902 127.697 82.1967C126.29 83.6032 125.5 85.5109 125.5 87.5Z" stroke="#488CFF" stroke-width="14" stroke-linecap="round" stroke-linejoin="round"/>
</svg>
