<svg width="755" height="591" viewBox="0 0 755 591" fill="none" xmlns="http://www.w3.org/2000/svg">
<path opacity="0.18" d="M662.858 558.584C648.014 566.667 632.301 573.042 616.023 577.599C539.291 599.269 460.111 592.346 384.151 572.575C342.935 561.837 297.839 547.218 254.917 549.472C223.892 551.082 194.107 562.932 162.374 562.787C110.162 562.577 73.2925 535.9 37.1964 498.934C0.279056 461.099 -4.37384 387.86 2.90336 336.775C10.7602 281.584 36.5846 229.452 74.9509 191.199C92.1457 174.036 111.627 159.787 130.029 144.122C185.606 97.0458 234.18 36.3327 301.494 11.9573C368.824 -12.4342 443.592 4.2776 510.81 29.619C562.523 49.0839 616.056 76.9852 641.333 128.489C656.032 158.435 659.429 193.308 672.728 224.01C706.087 301.001 769.617 339.109 751.843 433.262C748.559 452.357 742.537 470.872 733.972 488.244C718.13 519.027 692.37 542.436 662.842 558.584H662.858Z" fill="#0B65FF"/>
<path opacity="0.18" d="M311.975 535.948C431.694 535.948 528.745 524.119 528.745 509.528C528.745 494.936 431.694 483.108 311.975 483.108C192.256 483.108 95.2047 494.936 95.2047 509.528C95.2047 524.119 192.256 535.948 311.975 535.948Z" fill="#0B65FF"/>
<path d="M492.279 99.8794H292.832C275.404 99.8794 261.276 114.008 261.276 131.435V150.208C261.276 167.636 275.404 181.764 292.832 181.764H492.279C509.707 181.764 523.835 167.636 523.835 150.208V131.435C523.835 114.008 509.707 99.8794 492.279 99.8794Z" fill="white"/>
<path d="M536.602 191.344H337.155C319.727 191.344 305.599 205.472 305.599 222.9V241.672C305.599 259.1 319.727 273.228 337.155 273.228H536.602C554.03 273.228 568.158 259.1 568.158 241.672V222.9C568.158 205.472 554.03 191.344 536.602 191.344Z" fill="white"/>
<path d="M478.658 284.981H279.212C261.784 284.981 247.656 299.109 247.656 316.537V335.31C247.656 352.738 261.784 366.866 279.212 366.866H478.658C496.086 366.866 510.214 352.738 510.214 335.31V316.537C510.214 299.109 496.086 284.981 478.658 284.981Z" fill="white"/>
<path opacity="0.18" d="M324.195 326.487C324.195 343.617 310.301 357.512 293.17 357.512C276.04 357.512 262.146 343.617 262.146 326.487C262.146 309.356 276.04 295.462 293.17 295.462C310.22 295.366 324.098 309.115 324.195 326.149V326.487Z" fill="#488CFF"/>
<path opacity="0.34" d="M292.317 333.024C297.385 333.024 301.494 328.915 301.494 323.847C301.494 318.778 297.385 314.67 292.317 314.67C287.249 314.67 283.14 318.778 283.14 323.847C283.14 328.915 287.249 333.024 292.317 333.024Z" fill="#488CFF"/>
<path opacity="0.34" d="M312.329 350.894C300.576 360.12 283.897 359.653 272.675 349.784C276.217 338.932 287.906 333.007 298.757 336.549C305.422 338.723 310.526 344.132 312.329 350.894Z" fill="#488CFF"/>
<path opacity="0.18" d="M485.726 302.273H354.898V310.274H485.726V302.273Z" fill="#488CFF"/>
<path opacity="0.18" d="M485.726 316.473H354.898V324.474H485.726V316.473Z" fill="#488CFF"/>
<path opacity="0.18" d="M485.726 330.689H354.898V338.691H485.726V330.689Z" fill="#488CFF"/>
<path opacity="0.18" d="M485.726 344.905H354.898V352.907H485.726V344.905Z" fill="#488CFF"/>
<path opacity="0.18" d="M377.422 232.27C377.325 249.32 363.447 263.053 346.397 262.956C329.347 262.86 315.614 248.982 315.71 231.932C315.807 214.882 329.685 201.148 346.735 201.245C363.656 201.342 377.341 215.027 377.422 231.932V232.27Z" fill="#488CFF"/>
<path opacity="0.34" d="M345.592 238.806C350.66 238.806 354.769 234.698 354.769 229.629C354.769 224.561 350.66 220.452 345.592 220.452C340.523 220.452 336.415 224.561 336.415 229.629C336.415 234.698 340.523 238.806 345.592 238.806Z" fill="#488CFF"/>
<path opacity="0.34" d="M365.588 256.677C353.835 265.903 337.155 265.436 325.934 255.566C329.476 244.715 341.164 238.79 352.016 242.332C358.681 244.506 363.785 249.915 365.588 256.677Z" fill="#488CFF"/>
<path opacity="0.18" d="M538.985 208.055H408.156V216.057H538.985V208.055Z" fill="#488CFF"/>
<path opacity="0.18" d="M538.985 222.255H408.156V230.257H538.985V222.255Z" fill="#488CFF"/>
<path opacity="0.18" d="M538.985 236.472H408.156V244.474H538.985V236.472Z" fill="#488CFF"/>
<path opacity="0.18" d="M538.985 250.688H408.156V258.69H538.985V250.688Z" fill="#488CFF"/>
<path opacity="0.18" d="M336.383 140.806C336.383 157.936 322.488 171.83 305.358 171.83C288.228 171.83 274.333 157.936 274.333 140.806C274.333 123.675 288.228 109.781 305.358 109.781C322.488 109.781 336.383 123.675 336.383 140.806Z" fill="#488CFF"/>
<path opacity="0.34" d="M304.489 147.358C309.557 147.358 313.666 143.25 313.666 138.181C313.666 133.113 309.557 129.004 304.489 129.004C299.42 129.004 295.312 133.113 295.312 138.181C295.312 143.25 299.42 147.358 304.489 147.358Z" fill="#488CFF"/>
<path opacity="0.34" d="M324.517 165.245C312.748 174.487 296.068 174.004 284.846 164.102C288.388 153.235 300.061 147.294 310.912 150.836C317.594 153.009 322.73 158.435 324.517 165.245Z" fill="#488CFF"/>
<path opacity="0.18" d="M497.898 116.607H367.069V124.609H497.898V116.607Z" fill="#488CFF"/>
<path opacity="0.18" d="M497.898 130.824H367.069V138.825H497.898V130.824Z" fill="#488CFF"/>
<path opacity="0.18" d="M497.898 145.008H367.069V153.009H497.898V145.008Z" fill="#488CFF"/>
<path opacity="0.18" d="M497.898 159.224H367.069V167.226H497.898V159.224Z" fill="#488CFF"/>
<path d="M509.812 112.888C516.392 112.888 521.726 107.554 521.726 100.974C521.726 94.3943 516.392 89.0602 509.812 89.0602C503.232 89.0602 497.898 94.3943 497.898 100.974C497.898 107.554 503.232 112.888 509.812 112.888Z" fill="#488CFF"/>
<path d="M415.933 426.436L524.736 476.072C529.55 478.262 535.234 476.152 537.439 471.339L565.26 410.384C565.792 409.257 566.097 408.017 566.13 406.762C566.274 402.881 564.069 399.291 560.543 397.665L451.739 348.029C447.006 345.742 441.322 347.723 439.036 352.456C439.004 352.521 438.972 352.601 438.94 352.665L411.103 413.668C408.881 418.466 410.99 424.166 415.788 426.371C415.788 426.371 415.804 426.371 415.82 426.371L415.949 426.436H415.933Z" fill="#488CFF"/>
<path d="M415.933 426.436L524.736 476.072C529.55 478.262 535.234 476.152 537.439 471.339L565.26 410.384C565.792 409.257 566.097 408.017 566.13 406.762C566.274 402.881 564.069 399.291 560.543 397.665L451.739 348.029C447.006 345.742 441.322 347.723 439.036 352.456C439.004 352.521 438.972 352.601 438.94 352.665L411.103 413.668C408.881 418.466 410.99 424.166 415.788 426.371C415.788 426.371 415.804 426.371 415.82 426.371L415.949 426.436H415.933Z" fill="url(#paint0_linear_5_165)"/>
<path d="M410.91 424.166L519.713 473.802C524.527 475.991 530.194 473.882 532.416 469.085L560.237 408.114C560.768 406.987 561.058 405.763 561.106 404.507C561.251 400.627 559.046 397.021 555.504 395.411L446.732 345.775C441.918 343.585 436.235 345.694 434.029 350.508L406.192 411.479C404.003 416.293 406.128 421.96 410.926 424.166H410.91Z" fill="#488CFF"/>
<path d="M564.793 401.513L531.466 313.977L443.56 348.125L556.292 416.76L564.793 401.513Z" fill="#488CFF"/>
<path d="M438.537 345.936L472.556 420.398L564.825 401.561L531.498 314.025C531.498 314.025 441 344.664 438.521 345.936H438.537Z" fill="url(#paint1_linear_5_165)"/>
<path d="M504.273 414.667L513.161 470.823L410.926 424.166L460.353 393.704L472.524 420.35L504.273 414.667Z" fill="url(#paint2_linear_5_165)"/>
<path d="M112.351 269.622L81.9865 224.123C80.5697 222.127 81.0366 219.374 83.033 217.957C83.033 217.957 83.0652 217.941 83.0813 217.925L108.729 200.939C109.212 200.617 109.743 200.408 110.306 200.295C112.061 199.941 113.832 200.681 114.83 202.163L145.195 247.661C145.92 248.756 146.113 250.108 145.726 251.364C145.437 252.346 144.809 253.184 143.971 253.747L118.421 270.845C116.424 272.182 113.72 271.65 112.367 269.67V269.622H112.351Z" fill="#488CFF"/>
<path d="M112.351 269.622L81.9865 224.123C80.5697 222.127 81.0366 219.374 83.033 217.957C83.033 217.957 83.0652 217.941 83.0813 217.925L108.729 200.939C109.212 200.617 109.743 200.408 110.306 200.295C112.061 199.941 113.832 200.681 114.83 202.163L145.195 247.661C145.92 248.756 146.113 250.108 145.726 251.364C145.437 252.346 144.809 253.184 143.971 253.747L118.421 270.845C116.424 272.182 113.72 271.65 112.367 269.67V269.622H112.351Z" fill="url(#paint3_linear_5_165)"/>
<path d="M113.736 271.747L83.3712 226.248C82.0188 224.22 82.5661 221.499 84.5947 220.146L110.145 203.225C110.628 202.903 111.16 202.694 111.723 202.581C113.462 202.243 115.249 202.968 116.231 204.449L146.596 249.948C147.948 251.96 147.401 254.681 145.388 256.033L119.822 273.051C117.793 274.371 115.072 273.792 113.752 271.763C113.752 271.763 113.752 271.763 113.752 271.747H113.736Z" fill="#488CFF"/>
<path d="M147.143 253.554L110.983 243.604L111.707 202.404C113.446 202.066 115.233 202.791 116.215 204.272L146.58 249.77C147.352 250.881 147.562 252.282 147.143 253.554Z" fill="url(#paint4_linear_5_165)"/>
<path d="M111.24 228.84L85.2225 228.905L113.736 271.747L123.943 247.162L111.015 243.604L111.24 228.84Z" fill="url(#paint5_linear_5_165)"/>
<path d="M175.399 501.059C173.563 502.46 171.937 504.891 172.919 507.016C173.901 509.141 176.526 509.431 178.748 509.496C187.2 509.721 195.636 508.964 203.912 507.258C204.153 507.242 204.395 507.129 204.572 506.968C204.733 506.759 204.813 506.485 204.797 506.227C205.409 501.075 205.667 495.891 205.586 490.707C201.03 489.419 195.765 490.981 191.692 493.058C186.459 495.65 180.052 497.437 175.399 501.043V501.059Z" fill="#488CFF"/>
<path d="M261.405 497.936C263.24 499.369 264.882 501.784 263.9 503.893C262.918 506.002 260.278 506.34 258.04 506.372C249.587 506.581 241.135 505.809 232.876 504.07C232.634 504.054 232.393 503.941 232.216 503.78C232.071 503.555 231.99 503.297 232.006 503.039C231.378 497.887 231.105 492.703 231.217 487.519C235.774 486.215 241.038 487.793 245.112 489.87C250.344 492.542 256.736 494.329 261.389 497.92L261.405 497.936Z" fill="#488CFF"/>
<path d="M193.06 351.812V492.156C193.06 492.156 200.885 494.941 205.634 492.156L220.398 373.934L230.734 490.224C230.734 490.224 239.01 492.172 245.208 489.371L251.407 350.782C251.407 350.782 214.747 342.522 193.044 351.812H193.06Z" fill="#2F4156"/>
<path d="M299.578 275.611C295.634 291.469 295.682 299.23 289.676 314.428C288.066 318.566 285.539 323.122 281.192 323.637C277.875 324.024 274.848 321.818 272.208 319.741C264.995 313.993 257.766 308.246 250.505 302.498C249.781 319.661 250.328 336.855 252.164 353.937C242.149 359.218 231.604 364.612 220.286 364.274C213.169 363.775 206.23 361.875 199.855 358.703C198.309 358.043 196.796 357.351 195.282 356.642C194.735 356.449 194.252 356.111 193.898 355.644C191.837 352.424 192.803 344.31 192.642 340.478C192.4 334.65 192.111 328.789 191.821 322.945C191.692 320.884 191.595 318.952 191.45 316.94C190.935 307.441 190.34 297.99 189.39 288.507C189.551 290.133 187.925 293.079 187.329 294.706C186.556 297.265 185.799 299.874 185.01 302.466C184.173 304.816 183.481 307.215 182.95 309.662C182.499 312.625 183.916 315.458 183.739 318.501C183.706 321.077 182.483 323.492 180.422 325.038C177.218 327.099 173.016 325.827 169.522 324.33C167.574 323.75 165.868 322.526 164.708 320.852C163.952 318.952 163.839 316.859 164.402 314.895C166.029 303.899 168.894 293.112 172.952 282.759C176.445 273.695 179.874 263.81 189.502 259.752C194.493 257.692 200.418 257.547 205.763 257.434L224.552 257.064C230.509 256.645 236.498 257.112 242.326 258.448C249.958 260.509 254.74 266.225 259.054 272.536C264.432 280.457 269.471 288.604 274.188 296.992C277.537 285.851 277.183 282.969 281.24 272.069C287.487 272.568 293.653 273.759 299.626 275.611H299.578Z" fill="#488CFF"/>
<path d="M219.497 319.95C217.387 322.719 214.103 324.313 210.625 324.281C207.856 324.378 205.103 324.619 202.35 325.006C201.593 325.086 200.869 325.376 200.289 325.859C199.855 326.39 199.565 327.018 199.436 327.678C196.844 337.338 199.211 347.53 200.032 357.479C200.112 357.882 200.064 358.317 199.903 358.703C198.357 358.043 196.844 357.351 195.33 356.642C194.783 356.449 194.3 356.111 193.946 355.644C191.885 352.424 192.851 344.31 192.69 340.478C192.449 334.65 192.159 328.789 191.869 322.945C191.74 320.884 191.644 318.952 191.499 316.94C191.982 316.811 192.465 316.73 192.948 316.65L206.295 314.38C209.579 313.8 214.57 311.852 217.854 313.092C221.139 314.331 221.042 317.503 219.513 319.966L219.497 319.95Z" fill="url(#paint6_linear_5_165)"/>
<path d="M205.168 257.386C208.307 254.617 211.205 249.513 210.625 245.166C210.046 240.819 206.874 236.246 205.039 232.141C204.105 230.08 203.171 227.536 204.298 225.508C204.958 224.606 205.715 223.769 206.552 223.012C208.452 220.951 208.967 217.925 210.239 215.381C212.3 211.356 216.26 208.667 220.752 208.2C225.26 207.878 229.607 210.036 232.071 213.819C233.182 215.816 233.938 217.989 234.276 220.259C235.452 226.281 235.532 232.463 234.502 238.5C234.212 240.593 233.504 242.622 232.441 244.441C231.346 246.277 229.43 247.468 227.305 247.645C226.21 247.645 224.954 247.404 224.182 248.16C223.827 248.531 223.618 249.014 223.554 249.529C223.264 250.994 223.441 252.524 224.069 253.892C224.793 255.615 225.325 257.418 225.647 259.269C226.065 261.234 226.323 263.6 224.826 264.888C223.876 265.548 222.733 265.87 221.573 265.806C215.085 265.774 208.999 262.65 205.168 257.402V257.386Z" fill="#FFB4A3"/>
<path d="M225.808 292.21L239.96 246.695L174.545 262.924L210.352 312.77L225.808 292.21Z" fill="url(#paint7_linear_5_165)"/>
<path d="M238.833 203.58C238.446 202.163 237.69 200.875 236.643 199.86C233.665 196.866 229.302 195.707 225.228 196.818C223.328 197.349 221.574 198.395 219.69 199.023C216.389 199.764 213.024 200.231 209.643 200.392C206.295 200.875 202.72 202.227 201.143 205.238C200.338 207.331 199.855 209.52 199.694 211.758C198.583 217.442 194.509 223.093 196.586 228.518C198.663 233.944 206.601 238.098 209.837 242.638C210.658 240.69 209.676 236.81 208.822 234.862C207.357 234.926 206.037 234.025 205.554 232.656C204.926 231.626 204.572 230.45 204.54 229.243C204.395 228.019 204.83 226.812 205.747 225.975C206.923 225.427 208.323 225.846 209.016 226.941C209.643 228.035 209.998 229.275 210.014 230.547C214.151 226.603 209.627 218.585 213.346 214.222C216.196 215.252 219.126 216.073 222.089 216.685C225.228 216.959 228.4 216.556 231.378 215.477C235.581 213.867 239.96 208.265 238.849 203.58H238.833Z" fill="#C14834"/>
<path d="M172.839 308.696C170.891 309.501 169.2 310.838 167.977 312.56C166.528 315.008 166.479 318.034 167.832 320.53C169.232 322.977 171.551 324.748 174.288 325.424C178.184 326.455 182.29 325.424 186.202 324.426L200.161 320.82C200.531 320.755 200.885 320.594 201.159 320.321C201.4 319.838 201.4 319.258 201.159 318.775C200.273 315.378 199.694 311.707 198.47 308.439C197.375 305.541 196.071 305.557 193.012 305.476C186.315 305.348 179.005 305.67 172.839 308.68V308.696Z" fill="#488CFF"/>
<path d="M288.646 277.318C289.242 277.35 289.821 277.221 290.337 276.931C290.707 276.657 290.997 276.287 291.206 275.869C292.14 274.259 292.639 272.439 292.655 270.572C292.591 269.67 292.687 268.752 292.929 267.883C293.202 267.319 293.557 266.772 293.943 266.273C295.36 263.552 295.875 260.445 295.376 257.418C295.376 256.259 295.15 255.116 294.716 254.053C293.879 252.427 292.365 251.236 290.578 250.801C288.807 250.366 286.988 250.189 285.185 250.286C284.009 250.189 282.834 250.366 281.755 250.817C280.177 251.606 279.356 255.148 279.05 256.774C278.567 259.463 279.083 262.248 280.516 264.566C280.982 265.21 281.385 265.903 281.723 266.627C282.592 268.978 280.548 272.359 282.061 274.403C283.784 276.223 286.183 277.253 288.678 277.301L288.646 277.318Z" fill="#FFB4A3"/>
<path d="M316.048 218.07V267.336C314.406 265.468 312.571 263.761 310.607 262.248C302.283 255.631 292.092 251.815 281.466 251.364C277.634 251.3 274.188 249.046 272.578 245.568C271.806 243.846 271.516 241.946 271.725 240.062C272.498 235.168 276.813 231.61 281.771 231.787C287.358 231.561 298.322 229.484 316.048 218.053V218.07Z" fill="#488CFF"/>
<path d="M318.302 267.239C325.318 267.239 331.005 256.225 331.005 242.638C331.005 229.051 325.318 218.037 318.302 218.037C311.287 218.037 305.599 229.051 305.599 242.638C305.599 256.225 311.287 267.239 318.302 267.239Z" fill="#488CFF"/>
<path d="M318.302 267.239C325.318 267.239 331.005 256.225 331.005 242.638C331.005 229.051 325.318 218.037 318.302 218.037C311.287 218.037 305.599 229.051 305.599 242.638C305.599 256.225 311.287 267.239 318.302 267.239Z" fill="url(#paint8_linear_5_165)"/>
<path d="M306.791 232.27L318.318 235.876V248.289L306.694 252.556C305.342 245.858 305.374 238.967 306.791 232.286V232.27Z" fill="url(#paint9_linear_5_165)"/>
<path d="M284.573 263.198H291.753V269.509C291.753 271.489 290.143 273.115 288.147 273.115C286.167 273.115 284.541 271.505 284.541 269.509V263.198H284.557H284.573Z" fill="#488CFF"/>
<path d="M318.302 248.273C319.912 248.273 321.216 245.498 321.216 242.075C321.216 238.651 319.912 235.876 318.302 235.876C316.693 235.876 315.388 238.651 315.388 242.075C315.388 245.498 316.693 248.273 318.302 248.273Z" fill="#488CFF"/>
<path d="M310.606 262.135C302.283 255.518 292.091 251.702 281.465 251.252C277.634 251.187 274.188 248.933 272.578 245.456C272.852 245.745 275.927 248.676 284.589 247.211C293.685 245.665 306.259 250.27 306.259 250.27L310.606 262.119V262.135Z" fill="url(#paint10_linear_5_165)"/>
<path d="M218.16 315.716H209.434C208.082 315.78 206.955 314.734 206.89 313.382C206.842 313.108 206.842 312.834 206.89 312.56L211.028 294.303C211.463 292.5 213.04 291.212 214.892 291.131H223.602C224.954 291.083 226.098 292.146 226.146 293.514C226.194 293.772 226.194 294.045 226.146 294.303L222.008 312.56C221.573 314.364 220.012 315.652 218.16 315.732V315.716Z" fill="#231F20"/>
<path d="M206.44 302.498C206.713 302.063 207.019 301.661 207.357 301.274C207.824 300.807 208.452 300.518 209.112 300.502C209.257 300.502 209.402 300.534 209.499 300.63C209.563 300.727 209.595 300.824 209.627 300.936C209.724 301.532 209.772 302.144 209.917 302.707C210.03 303.303 210.336 303.85 210.787 304.253C211.72 305.026 213.524 304.527 214.586 304.398L219.142 303.883C220.076 303.641 221.074 303.818 221.847 304.398C222.733 305.267 222.346 306.732 221.847 307.891C220.463 311.321 218.643 315.072 215.166 316.376C211.028 317.954 206.391 315.41 202.028 316.086C199.581 316.457 196.876 317.39 195.427 314.686C194.558 313.188 194.654 311.321 195.669 309.904C197.005 308.729 198.567 307.795 200.241 307.199C201.658 306.459 202.994 305.589 204.234 304.591C204.894 304.076 205.506 303.528 206.069 302.917L206.423 302.482L206.44 302.498Z" fill="#FFB4A3"/>
<defs>
<linearGradient id="paint0_linear_5_165" x1="472.379" y1="401.497" x2="695.364" y2="550.164" gradientUnits="userSpaceOnUse">
<stop stop-color="#231F20"/>
<stop offset="0.08" stop-color="#231F20" stop-opacity="0.69"/>
<stop offset="0.21" stop-color="#231F20" stop-opacity="0.32"/>
<stop offset="1" stop-color="#231F20" stop-opacity="0"/>
</linearGradient>
<linearGradient id="paint1_linear_5_165" x1="464.683" y1="451.761" x2="645.567" y2="70.3359" gradientUnits="userSpaceOnUse">
<stop stop-color="#231F20"/>
<stop offset="0.08" stop-color="#231F20" stop-opacity="0.69"/>
<stop offset="0.21" stop-color="#231F20" stop-opacity="0.32"/>
<stop offset="1" stop-color="#231F20" stop-opacity="0"/>
</linearGradient>
<linearGradient id="paint2_linear_5_165" x1="590.4" y1="323.468" x2="258.557" y2="644.152" gradientUnits="userSpaceOnUse">
<stop stop-color="#231F20"/>
<stop offset="0.08" stop-color="#231F20" stop-opacity="0.69"/>
<stop offset="0.21" stop-color="#231F20" stop-opacity="0.32"/>
<stop offset="1" stop-color="#231F20" stop-opacity="0"/>
</linearGradient>
<linearGradient id="paint3_linear_5_165" x1="124.497" y1="247.1" x2="40.9877" y2="157.132" gradientUnits="userSpaceOnUse">
<stop stop-color="#231F20"/>
<stop offset="0.08" stop-color="#231F20" stop-opacity="0.69"/>
<stop offset="0.21" stop-color="#231F20" stop-opacity="0.32"/>
<stop offset="1" stop-color="#231F20" stop-opacity="0"/>
</linearGradient>
<linearGradient id="paint4_linear_5_165" x1="165.547" y1="215.055" x2="73.3385" y2="248.054" gradientUnits="userSpaceOnUse">
<stop stop-color="white"/>
<stop offset="1" stop-color="white" stop-opacity="0"/>
</linearGradient>
<linearGradient id="paint5_linear_5_165" x1="140.758" y1="191.88" x2="18.8068" y2="364.516" gradientUnits="userSpaceOnUse">
<stop stop-color="#231F20"/>
<stop offset="0.08" stop-color="#231F20" stop-opacity="0.69"/>
<stop offset="0.21" stop-color="#231F20" stop-opacity="0.32"/>
<stop offset="1" stop-color="#231F20" stop-opacity="0"/>
</linearGradient>
<linearGradient id="paint6_linear_5_165" x1="151.538" y1="302.321" x2="265.462" y2="369.619" gradientUnits="userSpaceOnUse">
<stop stop-color="#231F20"/>
<stop offset="0.08" stop-color="#231F20" stop-opacity="0.69"/>
<stop offset="0.21" stop-color="#231F20" stop-opacity="0.32"/>
<stop offset="1" stop-color="#231F20" stop-opacity="0"/>
</linearGradient>
<linearGradient id="paint7_linear_5_165" x1="220.511" y1="321.093" x2="208.162" y2="259.366" gradientUnits="userSpaceOnUse">
<stop stop-color="white"/>
<stop offset="1" stop-color="white" stop-opacity="0"/>
</linearGradient>
<linearGradient id="paint8_linear_5_165" x1="270.92" y1="219.857" x2="418.46" y2="290.761" gradientUnits="userSpaceOnUse">
<stop stop-color="#231F20"/>
<stop offset="0.08" stop-color="#231F20" stop-opacity="0.69"/>
<stop offset="0.21" stop-color="#231F20" stop-opacity="0.32"/>
<stop offset="1" stop-color="#231F20" stop-opacity="0"/>
</linearGradient>
<linearGradient id="paint9_linear_5_165" x1="261.437" y1="226.168" x2="396.548" y2="273.904" gradientUnits="userSpaceOnUse">
<stop stop-color="#231F20"/>
<stop offset="0.08" stop-color="#231F20" stop-opacity="0.69"/>
<stop offset="0.21" stop-color="#231F20" stop-opacity="0.32"/>
<stop offset="1" stop-color="#231F20" stop-opacity="0"/>
</linearGradient>
<linearGradient id="paint10_linear_5_165" x1="292.059" y1="280.908" x2="290.9" y2="213.932" gradientUnits="userSpaceOnUse">
<stop stop-color="#231F20"/>
<stop offset="0.08" stop-color="#231F20" stop-opacity="0.69"/>
<stop offset="0.21" stop-color="#231F20" stop-opacity="0.32"/>
<stop offset="1" stop-color="#231F20" stop-opacity="0"/>
</linearGradient>
</defs>
</svg>
