<svg width="722" height="304" viewBox="0 0 722 304" fill="none" xmlns="http://www.w3.org/2000/svg">
<path fill-rule="evenodd" clip-rule="evenodd" d="M53.6661 61C54.5596 61 55.1734 62.7749 54.7428 63.5578L30.2498 108.087C28.0503 112.086 30.9433 116.979 35.507 116.979C36.8838 116.979 38 118.095 38 119.472V197C38 200.314 40.6863 203 44 203H76C79.3137 203 82 200.314 82 197V119.472C82 118.095 83.1162 116.979 84.493 116.979C89.0567 116.979 91.9497 112.086 89.7502 108.087L65.2572 63.5578C64.8266 62.7749 65.4404 61 66.3339 61L109.677 61C115.378 61 120 65.6218 120 71.3231V193C120 220.614 97.6142 243 70 243H50C22.3858 243 0 220.614 0 193V71.3231C0 65.6218 4.62183 61 10.3231 61L53.6661 61Z" fill="#F5EFEB"/>
<path d="M179.25 122H203.5C220 122 230.167 124.833 234 130.5C235.833 133.167 237.25 135.75 238.25 138.25C239.417 140.75 240.167 144.667 240.5 150C241.333 159.667 241.75 170.417 241.75 182.25C241.75 194.083 241.667 202.667 241.5 208C241.333 213.167 240.75 218.5 239.75 224C238.917 229.333 237.75 233.25 236.25 235.75C234.75 238.083 232.5 240.25 229.5 242.25C226.5 244.25 223 245.583 219 246.25C215 246.75 209.833 247 203.5 247H179.25V228.25H192.75C197.083 228.25 199.833 227.667 201 226.5C202.333 225.333 203 223.5 203 221V148.25C203 145.583 202.333 143.667 201 142.5C199.833 141.333 197.083 140.75 192.75 140.75H179.25V122ZM171.75 302.75H156.5C149.167 302.75 143.583 300.917 139.75 297.25C136.083 293.75 134.25 289.167 134.25 283.5V141.25C134.25 135.583 136.083 131 139.75 127.5C143.583 123.833 149.167 122 156.5 122H171.75V302.75Z" fill="#F5EFEB"/>
<path d="M397.021 66.25V232.75C397.021 238.583 396.105 242.417 394.271 244.25C392.605 246.083 388.938 247 383.271 247H347.771C337.938 247 331.438 245.5 328.271 242.5C325.271 239.5 322.605 231.75 320.271 219.25C315.605 194.583 308.855 154.75 300.021 99.75C299.355 95.5833 298.355 92.9167 297.021 91.75C295.855 90.5833 293.771 89.9167 290.771 89.75H260.021V66.25H314.271C318.438 66.25 321.771 66.75 324.271 67.75C326.771 68.75 328.771 70.9167 330.271 74.25C331.938 77.4167 333.021 80.5 333.521 83.5C334.188 86.5 334.855 90 335.521 94C336.355 98.8333 337.521 105.917 339.021 115.25C341.855 134.083 346.271 160.667 352.271 195C354.605 209.667 356.188 217.917 357.021 219.75C358.021 221.417 359.688 222.417 362.021 222.75V76.25C362.021 73.25 362.855 70.8333 364.521 69C366.188 67.1667 368.355 66.25 371.021 66.25H397.021ZM260.021 98.5H286.021C288.688 98.5 290.855 99.4167 292.521 101.25C294.188 103.083 295.021 105.5 295.021 108.5V232.75C295.021 238.417 294.271 242.25 292.771 244.25C291.271 246.083 288.271 247 283.771 247H260.021V98.5ZM454.117 247H453.617C437.117 247 426.951 244.167 423.117 238.5C421.284 235.833 419.784 233.25 418.617 230.75C417.617 228.25 416.951 224.333 416.617 219C415.784 209.333 415.367 198.583 415.367 186.75C415.367 174.917 415.451 166.417 415.617 161.25C415.784 155.917 416.284 150.583 417.117 145.25C418.117 139.75 419.367 135.833 420.867 133.5C422.367 131 424.617 128.75 427.617 126.75C430.617 124.75 434.117 123.5 438.117 123C442.117 122.333 447.284 122 453.617 122H454.117V247ZM520.617 207.5V220.25C520.617 238.083 511.534 247 493.367 247H461.867V228.25H475.367C478.867 228.25 481.034 227.75 481.867 226.75C482.701 225.583 483.117 223.583 483.117 220.75V212.75C483.117 210.25 483.367 208.833 483.867 208.5C484.534 208.167 484.951 208 485.117 208C485.284 207.833 485.701 207.75 486.367 207.75C487.201 207.583 487.784 207.5 488.117 207.5C498.951 207.5 509.784 207.5 520.617 207.5ZM461.867 122H490.867C502.367 122 510.201 124.25 514.367 128.75C518.534 133.25 520.617 139.917 520.617 148.75V170.75C520.617 185.75 512.451 193.25 496.117 193.25H459.367V174.5H472.867C476.867 174.5 479.534 174 480.867 173C482.367 172 483.117 170.083 483.117 167.25V148.25C483.117 145.417 482.701 143.5 481.867 142.5C481.034 141.333 478.867 140.75 475.367 140.75H461.867V122ZM633 122V159C633 167.167 630.917 173.25 626.75 177.25C622.75 181.083 615.75 183 605.75 183H586.75V164.25H590.75C593.417 164.25 594.917 163.167 595.25 161C595.417 160 595.5 158.583 595.5 156.75V132.25C595.5 125.417 598.5 122 604.5 122H633ZM579.25 206.75H575.25C572.583 206.75 571.083 207.833 570.75 210C570.583 211 570.5 212.417 570.5 214.25V236.75C570.5 243.583 567.5 247 561.5 247H533V212C533 203.833 535 197.833 539 194C543.167 190 550.25 188 560.25 188H579.25V206.75ZM586.75 188H605.75C615.75 188 622.75 190 626.75 194C630.917 197.833 633 203.833 633 212V247H604.5C598.5 247 595.5 243.583 595.5 236.75V214.25C595.5 210.917 595.083 208.833 594.25 208C593.417 207.167 592.25 206.75 590.75 206.75H586.75V188ZM533 122H561.5C567.5 122 570.5 125.417 570.5 132.25V156.75C570.5 160.083 570.917 162.167 571.75 163C572.583 163.833 573.75 164.25 575.25 164.25H579.25V183H560.25C550.25 183 543.167 181.083 539 177.25C535 173.25 533 167.167 533 159V122ZM711.477 245C711.477 246 710.977 246.667 709.977 247H690.977C678.81 247 669.977 244.583 664.477 239.75C658.977 234.917 656.227 226.417 656.227 214.25V141.25H643.477C639.31 141.25 637.227 138.75 637.227 133.75V122H656.227V66.25H671.477C678.81 66.25 684.31 68.0833 687.977 71.75C691.81 75.4167 693.727 80.0833 693.727 85.75V218.75C693.727 224.917 697.227 228 704.227 228H709.477C710.81 228 711.477 228.583 711.477 229.75V245ZM719.227 122V133.75C719.227 138.75 717.143 141.25 712.977 141.25H699.977V122H719.227Z" fill="#2F4156"/>
</svg>
